<?xml version="1.0" encoding="UTF-8" standalone="no"?><!DOCTYPE svg PUBLIC "-//W3C//DTD SVG 1.1//EN" "http://www.w3.org/Graphics/SVG/1.1/DTD/svg11.dtd"><!-- Generated by graphviz version 2.40.1 (20161225.0304)
 --><!-- Title: G Pages: 1 --><svg xmlns="http://www.w3.org/2000/svg" xmlns:xlink="http://www.w3.org/1999/xlink" width="1096pt" height="260pt" viewBox="0.00 0.00 1095.75 260.00">
<g id="graph0" class="graph" transform="scale(1 1) rotate(0) translate(4 256)">
<title>G</title>
<polygon fill="#ffffff" stroke="transparent" points="-4,4 -4,-256 1091.745,-256 1091.745,4 -4,4"/>
<!-- S, 14 -->
<g id="node1" class="node">
<title>S, 14</title>
<ellipse fill="none" stroke="#000000" cx="565.3451" cy="-234" rx="30.7808" ry="18"/>
<text text-anchor="middle" x="565.3451" y="-229.8" font-family="Times,serif" font-size="14.00" fill="#000000">S, 14</text>
</g>
<!-- for, 15 -->
<g id="node2" class="node">
<title>for, 15</title>
<ellipse fill="none" stroke="#000000" cx="252.3451" cy="-162" rx="36.5613" ry="18"/>
<text text-anchor="middle" x="252.3451" y="-157.8" font-family="Times,serif" font-size="14.00" fill="#000000">for, 15</text>
</g>
<!-- S, 14&#45;&gt;for, 15 -->
<g id="edge1" class="edge">
<title>S, 14-&gt;for, 15</title>
<path fill="none" stroke="#000000" d="M535.301,-229.6671C485.4403,-222.0901 382.7296,-204.8392 298.3451,-180 295.5685,-179.1827 292.7246,-178.2681 289.8792,-177.2959"/>
<polygon fill="#000000" stroke="#000000" points="290.8901,-173.9397 280.2959,-173.8273 288.5077,-180.5218 290.8901,-173.9397"/>
</g>
<!-- (, 16 -->
<g id="node3" class="node">
<title>(, 16</title>
<ellipse fill="none" stroke="#000000" cx="336.3451" cy="-162" rx="28.9754" ry="18"/>
<text text-anchor="middle" x="336.3451" y="-157.8" font-family="Times,serif" font-size="14.00" fill="#000000">(, 16</text>
</g>
<!-- S, 14&#45;&gt;(, 16 -->
<g id="edge2" class="edge">
<title>S, 14-&gt;(, 16</title>
<path fill="none" stroke="#000000" d="M536.2007,-227.5213C498.1204,-218.6691 429.6591,-201.4203 373.3451,-180 371.6926,-179.3714 370.0138,-178.6962 368.3292,-177.9891"/>
<polygon fill="#000000" stroke="#000000" points="369.3173,-174.5963 358.7608,-173.6955 366.4515,-180.9828 369.3173,-174.5963"/>
</g>
<!-- A, 1 -->
<g id="node4" class="node">
<title>A, 1</title>
<ellipse fill="none" stroke="#000000" cx="410.3451" cy="-162" rx="27.8306" ry="18"/>
<text text-anchor="middle" x="410.3451" y="-157.8" font-family="Times,serif" font-size="14.00" fill="#000000">A, 1</text>
</g>
<!-- S, 14&#45;&gt;A, 1 -->
<g id="edge3" class="edge">
<title>S, 14-&gt;A, 1</title>
<path fill="none" stroke="#000000" d="M541.1263,-222.75C514.5055,-210.3842 471.6285,-190.4671 442.2761,-176.8325"/>
<polygon fill="#000000" stroke="#000000" points="443.4272,-173.5081 432.8834,-172.4694 440.4782,-179.8566 443.4272,-173.5081"/>
</g>
<!-- ;, 17 -->
<g id="node9" class="node">
<title>;, 17</title>
<ellipse fill="none" stroke="#000000" cx="529.3451" cy="-162" rx="28.4127" ry="18"/>
<text text-anchor="middle" x="529.3451" y="-157.8" font-family="Times,serif" font-size="14.00" fill="#000000">;, 17</text>
</g>
<!-- S, 14&#45;&gt;;, 17 -->
<g id="edge8" class="edge">
<title>S, 14-&gt;;, 17</title>
<path fill="none" stroke="#000000" d="M556.6305,-216.5708C552.3854,-208.0807 547.1915,-197.6929 542.4788,-188.2674"/>
<polygon fill="#000000" stroke="#000000" points="545.5821,-186.6477 537.9794,-179.2687 539.3211,-189.7782 545.5821,-186.6477"/>
</g>
<!-- B, 6 -->
<g id="node10" class="node">
<title>B, 6</title>
<ellipse fill="none" stroke="#000000" cx="602.3451" cy="-162" rx="27.268" ry="18"/>
<text text-anchor="middle" x="602.3451" y="-157.8" font-family="Times,serif" font-size="14.00" fill="#000000">B, 6</text>
</g>
<!-- S, 14&#45;&gt;B, 6 -->
<g id="edge9" class="edge">
<title>S, 14-&gt;B, 6</title>
<path fill="none" stroke="#000000" d="M574.3017,-216.5708C578.6647,-208.0807 584.0029,-197.6929 588.8465,-188.2674"/>
<polygon fill="#000000" stroke="#000000" points="592.0131,-189.7628 593.4709,-179.2687 585.7871,-186.5633 592.0131,-189.7628"/>
</g>
<!-- ;, 18 -->
<g id="node14" class="node">
<title>;, 18</title>
<ellipse fill="none" stroke="#000000" cx="675.3451" cy="-162" rx="28.4127" ry="18"/>
<text text-anchor="middle" x="675.3451" y="-157.8" font-family="Times,serif" font-size="14.00" fill="#000000">;, 18</text>
</g>
<!-- S, 14&#45;&gt;;, 18 -->
<g id="edge13" class="edge">
<title>S, 14-&gt;;, 18</title>
<path fill="none" stroke="#000000" d="M586.0352,-220.4574C603.2276,-209.2041 627.8671,-193.0765 646.9126,-180.6104"/>
<polygon fill="#000000" stroke="#000000" points="649.0384,-183.4021 655.4886,-174.997 645.2047,-177.5451 649.0384,-183.4021"/>
</g>
<!-- C, 12 -->
<g id="node15" class="node">
<title>C, 12</title>
<ellipse fill="none" stroke="#000000" cx="826.3451" cy="-162" rx="31.9243" ry="18"/>
<text text-anchor="middle" x="826.3451" y="-157.8" font-family="Times,serif" font-size="14.00" fill="#000000">C, 12</text>
</g>
<!-- S, 14&#45;&gt;C, 12 -->
<g id="edge14" class="edge">
<title>S, 14-&gt;C, 12</title>
<path fill="none" stroke="#000000" d="M593.2766,-226.2947C640.0996,-213.3781 734.5122,-187.3332 787.6817,-172.6658"/>
<polygon fill="#000000" stroke="#000000" points="788.715,-176.0115 797.4241,-169.9782 786.8534,-169.2636 788.715,-176.0115"/>
</g>
<!-- ), 19 -->
<g id="node19" class="node">
<title>), 19</title>
<ellipse fill="none" stroke="#000000" cx="905.3451" cy="-162" rx="28.9754" ry="18"/>
<text text-anchor="middle" x="905.3451" y="-157.8" font-family="Times,serif" font-size="14.00" fill="#000000">), 19</text>
</g>
<!-- S, 14&#45;&gt;), 19 -->
<g id="edge18" class="edge">
<title>S, 14-&gt;), 19</title>
<path fill="none" stroke="#000000" d="M595.9949,-231.2322C651.2922,-225.6464 770.9602,-210.8382 867.3451,-180 869.4917,-179.3132 871.6733,-178.5302 873.8502,-177.6843"/>
<polygon fill="#000000" stroke="#000000" points="875.4182,-180.8205 883.241,-173.6752 872.6698,-174.3826 875.4182,-180.8205"/>
</g>
<!-- int, type, 2 -->
<g id="node5" class="node">
<title>int, type, 2</title>
<ellipse fill="none" stroke="#000000" cx="52.3451" cy="-90" rx="52.1906" ry="18"/>
<text text-anchor="middle" x="52.3451" y="-85.8" font-family="Times,serif" font-size="14.00" fill="#000000">int, type, 2</text>
</g>
<!-- A, 1&#45;&gt;int, type, 2 -->
<g id="edge4" class="edge">
<title>A, 1-&gt;int, type, 2</title>
<path fill="none" stroke="#000000" d="M389.503,-150.1497C384.6511,-147.7978 379.4176,-145.5725 374.3451,-144 262.9187,-109.4564 228.4385,-132.3266 114.3451,-108 109.9723,-107.0676 105.4568,-105.9888 100.9494,-104.8318"/>
<polygon fill="#000000" stroke="#000000" points="101.7187,-101.4144 91.153,-102.2004 99.9027,-108.1748 101.7187,-101.4144"/>
</g>
<!-- x, name, 3 -->
<g id="node6" class="node">
<title>x, name, 3</title>
<ellipse fill="none" stroke="#000000" cx="174.3451" cy="-90" rx="51.03" ry="18"/>
<text text-anchor="middle" x="174.3451" y="-85.8" font-family="Times,serif" font-size="14.00" fill="#000000">x, name, 3</text>
</g>
<!-- A, 1&#45;&gt;x, name, 3 -->
<g id="edge5" class="edge">
<title>A, 1-&gt;x, name, 3</title>
<path fill="none" stroke="#000000" d="M388.9746,-150.3875C384.2402,-148.078 379.1887,-145.8103 374.3451,-144 314.1644,-121.5079 296.2369,-125.2339 234.3451,-108 230.5636,-106.947 226.6557,-105.8332 222.7323,-104.6965"/>
<polygon fill="#000000" stroke="#000000" points="223.5915,-101.3012 213.0106,-101.8459 221.6217,-108.0183 223.5915,-101.3012"/>
</g>
<!-- equally, 4 -->
<g id="node7" class="node">
<title>equally, 4</title>
<ellipse fill="none" stroke="#000000" cx="292.3451" cy="-90" rx="49.2396" ry="18"/>
<text text-anchor="middle" x="292.3451" y="-85.8" font-family="Times,serif" font-size="14.00" fill="#000000">equally, 4</text>
</g>
<!-- A, 1&#45;&gt;equally, 4 -->
<g id="edge6" class="edge">
<title>A, 1-&gt;equally, 4</title>
<path fill="none" stroke="#000000" d="M390.0601,-149.6228C372.6105,-138.9755 347.0716,-123.3924 326.4791,-110.8275"/>
<polygon fill="#000000" stroke="#000000" points="328.0637,-107.6944 317.7043,-105.4734 324.4177,-113.6699 328.0637,-107.6944"/>
</g>
<!-- 0, value, 5 -->
<g id="node8" class="node">
<title>0, value, 5</title>
<ellipse fill="none" stroke="#000000" cx="410.3451" cy="-90" rx="51.03" ry="18"/>
<text text-anchor="middle" x="410.3451" y="-85.8" font-family="Times,serif" font-size="14.00" fill="#000000">0, value, 5</text>
</g>
<!-- A, 1&#45;&gt;0, value, 5 -->
<g id="edge7" class="edge">
<title>A, 1-&gt;0, value, 5</title>
<path fill="none" stroke="#000000" d="M410.3451,-143.8314C410.3451,-136.131 410.3451,-126.9743 410.3451,-118.4166"/>
<polygon fill="#000000" stroke="#000000" points="413.8452,-118.4132 410.3451,-108.4133 406.8452,-118.4133 413.8452,-118.4132"/>
</g>
<!-- x, name, 7 -->
<g id="node11" class="node">
<title>x, name, 7</title>
<ellipse fill="none" stroke="#000000" cx="531.3451" cy="-90" rx="51.03" ry="18"/>
<text text-anchor="middle" x="531.3451" y="-85.8" font-family="Times,serif" font-size="14.00" fill="#000000">x, name, 7</text>
</g>
<!-- B, 6&#45;&gt;x, name, 7 -->
<g id="edge10" class="edge">
<title>B, 6-&gt;x, name, 7</title>
<path fill="none" stroke="#000000" d="M587.2878,-146.7307C577.961,-137.2726 565.7786,-124.9185 555.1641,-114.1545"/>
<polygon fill="#000000" stroke="#000000" points="557.6341,-111.6745 548.1205,-107.0117 552.6498,-116.5896 557.6341,-111.6745"/>
</g>
<!-- &lt;, cmp, 8 -->
<g id="node12" class="node">
<title>&lt;, cmp, 8</title>
<ellipse fill="none" stroke="#000000" cx="648.3451" cy="-90" rx="47.6898" ry="18"/>
<text text-anchor="middle" x="648.3451" y="-85.8" font-family="Times,serif" font-size="14.00" fill="#000000">&lt;, cmp, 8</text>
</g>
<!-- B, 6&#45;&gt;&lt;, cmp, 8 -->
<g id="edge11" class="edge">
<title>B, 6-&gt;&lt;, cmp, 8</title>
<path fill="none" stroke="#000000" d="M613.014,-145.3008C618.5411,-136.6496 625.4171,-125.8873 631.6303,-116.1623"/>
<polygon fill="#000000" stroke="#000000" points="634.6577,-117.9245 637.0922,-107.6132 628.7588,-114.1558 634.6577,-117.9245"/>
</g>
<!-- 10, value, 9 -->
<g id="node13" class="node">
<title>10, value, 9</title>
<ellipse fill="none" stroke="#000000" cx="770.3451" cy="-90" rx="56.186" ry="18"/>
<text text-anchor="middle" x="770.3451" y="-85.8" font-family="Times,serif" font-size="14.00" fill="#000000">10, value, 9</text>
</g>
<!-- B, 6&#45;&gt;10, value, 9 -->
<g id="edge12" class="edge">
<title>B, 6-&gt;10, value, 9</title>
<path fill="none" stroke="#000000" d="M623.92,-150.8824C628.6417,-148.5422 633.6363,-146.1367 638.3451,-144 666.7354,-131.1174 699.1313,-117.8438 724.7243,-107.6805"/>
<polygon fill="#000000" stroke="#000000" points="726.1636,-110.8752 734.1774,-103.9449 723.5909,-104.365 726.1636,-110.8752"/>
</g>
<!-- x, name, 13 -->
<g id="node16" class="node">
<title>x, name, 13</title>
<ellipse fill="none" stroke="#000000" cx="900.3451" cy="-90" rx="56.186" ry="18"/>
<text text-anchor="middle" x="900.3451" y="-85.8" font-family="Times,serif" font-size="14.00" fill="#000000">x, name, 13</text>
</g>
<!-- C, 12&#45;&gt;x, name, 13 -->
<g id="edge15" class="edge">
<title>C, 12-&gt;x, name, 13</title>
<path fill="none" stroke="#000000" d="M842.402,-146.3771C852.0725,-136.9679 864.589,-124.7896 875.5132,-114.1608"/>
<polygon fill="#000000" stroke="#000000" points="878.0405,-116.5851 882.767,-107.1029 873.159,-111.568 878.0405,-116.5851"/>
</g>
<!-- Cprime, 10 -->
<g id="node17" class="node">
<title>Cprime, 10</title>
<ellipse fill="none" stroke="#000000" cx="1029.3451" cy="-90" rx="54.4759" ry="18"/>
<text text-anchor="middle" x="1029.3451" y="-85.8" font-family="Times,serif" font-size="14.00" fill="#000000">Cprime, 10</text>
</g>
<!-- C, 12&#45;&gt;Cprime, 10 -->
<g id="edge16" class="edge">
<title>C, 12-&gt;Cprime, 10</title>
<path fill="none" stroke="#000000" d="M851.3452,-150.589C856.5939,-148.3162 862.1221,-146.0121 867.3451,-144 904.45,-129.7056 947.1432,-115.5667 979.3837,-105.3442"/>
<polygon fill="#000000" stroke="#000000" points="980.551,-108.6461 989.0361,-102.3015 978.4464,-101.9699 980.551,-108.6461"/>
</g>
<!-- ++, oper, 11 -->
<g id="node18" class="node">
<title>++, oper, 11</title>
<ellipse fill="none" stroke="#000000" cx="1029.3451" cy="-18" rx="58.3001" ry="18"/>
<text text-anchor="middle" x="1029.3451" y="-13.8" font-family="Times,serif" font-size="14.00" fill="#000000">++, oper, 11</text>
</g>
<!-- Cprime, 10&#45;&gt;++, oper, 11 -->
<g id="edge17" class="edge">
<title>Cprime, 10-&gt;++, oper, 11</title>
<path fill="none" stroke="#000000" d="M1029.3451,-71.8314C1029.3451,-64.131 1029.3451,-54.9743 1029.3451,-46.4166"/>
<polygon fill="#000000" stroke="#000000" points="1032.8452,-46.4132 1029.3451,-36.4133 1025.8452,-46.4133 1032.8452,-46.4132"/>
</g>
</g>
</svg>